<?xml version="1.0" encoding="iso-8859-1"?>
<!-- Generator: Adobe Illustrator 16.0.0, SVG Export Plug-In . SVG Version: 6.00 Build 0)  -->
<!DOCTYPE svg PUBLIC "-//W3C//DTD SVG 1.1//EN" "http://www.w3.org/Graphics/SVG/1.1/DTD/svg11.dtd">
<svg version="1.1" id="Capa_1" xmlns="http://www.w3.org/2000/svg" xmlns:xlink="http://www.w3.org/1999/xlink" x="0px" y="0px"
	 width="900.736px" height="900.736px" viewBox="0 0 900.736 900.736" style="enable-background:new 0 0 900.736 900.736;"
	 xml:space="preserve">
<g>
	<g>
		<g>
			<path d="M300.245,296.998c0-27.833-22.564-50.397-50.397-50.397H50.397C22.563,246.601,0,269.166,0,296.998v150.518
				c0,8.549,6.929,15.479,15.476,15.479h269.292c8.548,0,15.477-6.93,15.477-15.479V296.998L300.245,296.998z"/>
			<path d="M150.122,217.236c50.418,0,91.291-40.87,91.291-91.29V28.913c0-12.578-11.327-22.123-23.723-19.992
				c-24.739,4.25-78.648,14.953-116.787,22.625C76.426,36.47,58.832,57.972,58.832,82.938v43.011
				C58.832,176.366,99.704,217.236,150.122,217.236z"/>
			<path d="M850.337,246.601h-199.45c-27.834,0-50.396,22.565-50.396,50.397v150.518c0,8.549,6.929,15.479,15.476,15.479h269.292
				c8.547,0,15.478-6.93,15.478-15.479V296.998C900.734,269.165,878.17,246.601,850.337,246.601z"/>
			<path d="M750.612,217.236c50.418,0,91.291-40.87,91.291-91.29V28.913c0-12.578-11.326-22.123-23.725-19.992
				c-24.737,4.25-78.646,14.953-116.787,22.625c-24.477,4.924-42.069,26.426-42.069,51.393v43.011
				C659.321,176.366,700.193,217.236,750.612,217.236z"/>
			<path d="M550.092,675.72h-199.45c-27.834,0-50.396,22.563-50.396,50.396v150.519c0,8.547,6.929,15.479,15.476,15.479h269.292
				c8.547,0,15.478-6.932,15.478-15.479V726.116C600.489,698.283,577.926,675.72,550.092,675.72z"/>
			<path d="M517.934,438.039c-24.737,4.25-78.646,14.953-116.786,22.626c-24.478,4.924-42.071,26.425-42.071,51.392v43.011
				c0,50.419,40.872,91.291,91.29,91.291s91.291-40.872,91.291-91.291v-97.033C541.657,445.454,530.331,435.909,517.934,438.039z"/>
			<path d="M261.155,667.431c-25.656-17.588-48.937-38.132-69.58-61.356l21.357-12.363c9.994-5.785,9.977-20.22-0.03-25.98
				l-102.803-59.192c-10.006-5.762-22.497,1.468-22.485,13.014l0.121,118.63c0.012,11.549,12.52,18.753,22.514,12.968l23.355-13.519
				c26.539,31.72,57.115,59.431,91.255,82.702c9.461,6.449,22.377,3.768,28.381-5.982l13.544-21.998
				C272.354,685.304,269.915,673.435,261.155,667.431z"/>
			<path d="M839.66,541.626l-21.998-13.545c-9.044-5.568-20.912-3.13-26.917,5.631c-17.588,25.655-38.131,48.937-61.359,69.579
				l-12.36-21.356c-5.785-9.993-20.221-9.979-25.981,0.028L631.85,684.766c-5.761,10.007,1.47,22.497,13.016,22.485l118.63-0.121
				c11.548-0.012,18.752-12.521,12.967-22.515l-13.518-23.354c31.719-26.539,59.431-57.114,82.7-91.256
				C852.093,560.545,849.411,547.629,839.66,541.626z"/>
			<path d="M339.122,133.296c2.458,10.333,12.574,17,23.014,15.053c30.578-5.705,61.565-7.64,92.587-5.812l-6.359,23.843
				c-2.977,11.157,7.243,21.352,18.392,18.351l114.548-30.838c11.149-3.001,14.869-16.944,6.697-25.102l-83.969-83.798
				c-8.174-8.157-22.113-4.407-25.089,6.751l-6.956,26.071c-41.195-3.662-82.41-1.638-123.007,6.049
				c-11.25,2.132-18.487,13.159-15.837,24.301L339.122,133.296z"/>
		</g>
	</g>
</g>
<g>
</g>
<g>
</g>
<g>
</g>
<g>
</g>
<g>
</g>
<g>
</g>
<g>
</g>
<g>
</g>
<g>
</g>
<g>
</g>
<g>
</g>
<g>
</g>
<g>
</g>
<g>
</g>
<g>
</g>
</svg>
