<?xml version="1.0" encoding="iso-8859-1"?>
<!-- Generator: Adobe Illustrator 17.1.0, SVG Export Plug-In . SVG Version: 6.00 Build 0)  -->
<!DOCTYPE svg PUBLIC "-//W3C//DTD SVG 1.1//EN" "http://www.w3.org/Graphics/SVG/1.1/DTD/svg11.dtd">
<svg version="1.1" id="Capa_1" xmlns="http://www.w3.org/2000/svg" xmlns:xlink="http://www.w3.org/1999/xlink" x="0px" y="0px"
	 viewBox="0 0 516.492 516.492" style="enable-background:new 0 0 516.492 516.492;" xml:space="preserve">
<g>
	<path d="M256.14,161.934c25.622,0,46.467-20.845,46.467-46.467s-20.845-46.467-46.467-46.467
		c-25.615,0-46.455,20.845-46.455,46.467S230.525,161.934,256.14,161.934z"/>
	<path d="M413.103,184.562c20.876,0,37.86-16.984,37.86-37.86c0-20.877-16.984-37.862-37.86-37.862
		c-20.872,0-37.854,16.985-37.854,37.862C375.249,167.578,392.231,184.562,413.103,184.562z"/>
	<path d="M512.85,113.384c-2.725-3.332-6.583-5.403-10.864-5.831c-0.543-0.056-1.093-0.083-1.636-0.083
		c-8.297,0-15.178,6.236-16.007,14.507c-1.356,13.529-4.355,31.388-6.861,36.879c-3.156,4.542-18.55,19.107-34.781,33.595H386.94
		c-11.709-10.449-22.979-20.938-29.539-27.68c9.883-10.266,11.697-13.847,12.858-16.146c7.946-15.73,11.947-52.368,12.668-59.554
		c1.087-10.848-6.853-20.559-17.701-21.647c-0.663-0.066-1.335-0.101-1.997-0.101c-10.185,0-18.635,7.651-19.655,17.798
		c-0.837,8.306-2.175,17.936-3.688,26.331c-2.837-2.486-6.546-3.981-10.599-3.981c-0.542,0-1.092,0.027-1.631,0.082
		c-4.283,0.429-8.143,2.5-10.867,5.832c-2.725,3.332-3.989,7.525-3.559,11.807c0.319,3.186,1.43,13.476,3.418,24.262
		c-7.108,6.734-15.548,14.456-24.183,22.163H224.03c-8.637-7.708-17.077-15.433-24.188-22.167
		c1.989-10.783,3.101-21.07,3.421-24.255c0.43-4.283-0.835-8.478-3.559-11.81c-2.725-3.332-6.583-5.403-10.864-5.831
		c-0.543-0.056-1.093-0.083-1.636-0.083c-4.054,0-7.763,1.496-10.599,3.982c-1.512-8.395-2.85-18.023-3.684-26.328
		c-1.019-10.149-9.468-17.804-19.653-17.804c-0.662,0-1.334,0.034-1.996,0.101c-5.256,0.526-9.992,3.068-13.336,7.157
		c-3.345,4.09-4.896,9.236-4.368,14.492c0.719,7.182,4.709,43.805,12.662,59.553c1.162,2.301,2.98,5.883,12.862,16.147
		c-6.559,6.74-17.829,17.23-29.537,27.68H73.793c-16.231-14.486-31.626-29.051-34.785-33.595
		c-2.498-5.482-5.498-23.342-6.859-36.879c-0.829-8.271-7.711-14.507-16.009-14.507c-0.542,0-1.092,0.027-1.631,0.082
		c-4.283,0.429-8.142,2.5-10.867,5.832c-2.725,3.332-3.989,7.525-3.56,11.807c0.586,5.853,3.838,35.694,10.318,48.525
		c4.642,9.193,29.092,31.699,50.771,50.595V407.69c0,9.265,7.537,16.802,16.802,16.802c9.265,0,16.802-7.537,16.802-16.802v-99.2
		h10.373v99.2c0,9.265,7.537,16.802,16.802,16.802c9.265,0,16.802-7.537,16.802-16.802V227.288
		c15.192-13.158,32.4-28.604,43.454-40.218c0.818,0.754,1.644,1.513,2.502,2.298c9.204,8.424,18.062,16.264,23.833,21.324v217.844
		c0,11.378,9.257,20.635,20.635,20.635c11.378,0,20.635-9.257,20.635-20.635V314.028h12.674v114.508
		c0,11.378,9.257,20.635,20.635,20.635s20.635-9.257,20.635-20.635V214.361c4.809-4.184,16.113-14.086,28.031-24.993
		c0.859-0.785,1.685-1.544,2.503-2.298c10.231,10.748,25.731,24.778,40.03,37.241V407.69c0,9.265,7.537,16.802,16.802,16.802
		c9.265,0,16.802-7.537,16.802-16.802v-99.2h10.373v99.2c0,9.265,7.537,16.802,16.802,16.802c9.265,0,16.802-7.537,16.802-16.802
		V227.288c22.449-19.443,49.303-43.887,54.191-53.569c6.475-12.821,9.732-42.671,10.32-48.524
		C516.839,120.911,515.574,116.716,512.85,113.384z"/>
	<path d="M99.956,184.562c20.876,0,37.86-16.984,37.86-37.86c0-20.877-16.984-37.862-37.86-37.862
		c-20.872,0-37.852,16.985-37.852,37.862C62.104,167.578,79.084,184.562,99.956,184.562z"/>
</g>
<g>
</g>
<g>
</g>
<g>
</g>
<g>
</g>
<g>
</g>
<g>
</g>
<g>
</g>
<g>
</g>
<g>
</g>
<g>
</g>
<g>
</g>
<g>
</g>
<g>
</g>
<g>
</g>
<g>
</g>
</svg>
